<mxfile host="app.diagrams.net" modified="2024-05-08T08:04:43.984Z" agent="Mozilla/5.0 (Windows NT 10.0; Win64; x64) AppleWebKit/537.36 (KHTML, like Gecko) Chrome/121.0.0.0 Safari/537.36 OPR/107.0.0.0 (Edition std-1)" version="24.0.7" etag="8fOVnI5RX50c38acR62q" type="github">
  <diagram name="Page-1" id="BAEp0CXp6_f1Tx6B1zco">
    <mxGraphModel>
      <root>
        <mxCell id="0" />
        <mxCell id="1" parent="0" />
      </root>
    </mxGraphModel>
  </diagram>
</mxfile>
